<mxfile host="app.diagrams.net" modified="2023-11-08T11:35:17.746Z" agent="Mozilla/5.0 (Macintosh; Intel Mac OS X 10_15_7) AppleWebKit/537.36 (KHTML, like Gecko) Chrome/119.0.0.0 Safari/537.36" etag="ENJrVhfws4teaNXBCShN" version="22.0.8" type="github">
  <diagram name="第 1 页" id="CWbB0reNdJYfrKpQ3krx">
    <mxGraphModel dx="1434" dy="790" grid="1" gridSize="10" guides="1" tooltips="1" connect="1" arrows="1" fold="1" page="1" pageScale="1" pageWidth="827" pageHeight="1169" math="0" shadow="0">
      <root>
        <mxCell id="0" />
        <mxCell id="1" parent="0" />
        <mxCell id="eWc8LPqZ7n1QxOSzpqEL-14" value="" style="rounded=1;whiteSpace=wrap;html=1;dashed=1;" vertex="1" parent="1">
          <mxGeometry x="390" y="90" width="350" height="460" as="geometry" />
        </mxCell>
        <mxCell id="eWc8LPqZ7n1QxOSzpqEL-37" value="" style="rounded=1;whiteSpace=wrap;html=1;dashed=1;" vertex="1" parent="1">
          <mxGeometry x="400" y="110" width="330" height="150" as="geometry" />
        </mxCell>
        <mxCell id="eWc8LPqZ7n1QxOSzpqEL-12" value="" style="rounded=1;whiteSpace=wrap;html=1;dashed=1;" vertex="1" parent="1">
          <mxGeometry x="30" y="50" width="290" height="590" as="geometry" />
        </mxCell>
        <mxCell id="eWc8LPqZ7n1QxOSzpqEL-30" value="" style="edgeStyle=orthogonalEdgeStyle;rounded=0;orthogonalLoop=1;jettySize=auto;html=1;" edge="1" parent="1" source="eWc8LPqZ7n1QxOSzpqEL-1" target="eWc8LPqZ7n1QxOSzpqEL-3">
          <mxGeometry relative="1" as="geometry" />
        </mxCell>
        <mxCell id="eWc8LPqZ7n1QxOSzpqEL-1" value="before SDK release" style="rounded=1;whiteSpace=wrap;html=1;" vertex="1" parent="1">
          <mxGeometry x="115" y="70" width="120" height="60" as="geometry" />
        </mxCell>
        <mxCell id="eWc8LPqZ7n1QxOSzpqEL-16" value="" style="edgeStyle=orthogonalEdgeStyle;rounded=0;orthogonalLoop=1;jettySize=auto;html=1;" edge="1" parent="1" source="eWc8LPqZ7n1QxOSzpqEL-3" target="eWc8LPqZ7n1QxOSzpqEL-6">
          <mxGeometry relative="1" as="geometry" />
        </mxCell>
        <mxCell id="eWc8LPqZ7n1QxOSzpqEL-40" value="远程操作云测机器" style="edgeLabel;html=1;align=center;verticalAlign=middle;resizable=0;points=[];" vertex="1" connectable="0" parent="eWc8LPqZ7n1QxOSzpqEL-16">
          <mxGeometry x="0.1027" relative="1" as="geometry">
            <mxPoint as="offset" />
          </mxGeometry>
        </mxCell>
        <mxCell id="eWc8LPqZ7n1QxOSzpqEL-31" value="" style="edgeStyle=orthogonalEdgeStyle;rounded=0;orthogonalLoop=1;jettySize=auto;html=1;" edge="1" parent="1" source="eWc8LPqZ7n1QxOSzpqEL-3" target="eWc8LPqZ7n1QxOSzpqEL-4">
          <mxGeometry relative="1" as="geometry" />
        </mxCell>
        <mxCell id="eWc8LPqZ7n1QxOSzpqEL-3" value="run e2e script" style="rounded=1;whiteSpace=wrap;html=1;" vertex="1" parent="1">
          <mxGeometry x="115" y="170" width="120" height="60" as="geometry" />
        </mxCell>
        <mxCell id="eWc8LPqZ7n1QxOSzpqEL-32" value="" style="edgeStyle=orthogonalEdgeStyle;rounded=0;orthogonalLoop=1;jettySize=auto;html=1;" edge="1" parent="1" source="eWc8LPqZ7n1QxOSzpqEL-4" target="eWc8LPqZ7n1QxOSzpqEL-5">
          <mxGeometry relative="1" as="geometry" />
        </mxCell>
        <mxCell id="eWc8LPqZ7n1QxOSzpqEL-4" value="get tracker data" style="rounded=1;whiteSpace=wrap;html=1;" vertex="1" parent="1">
          <mxGeometry x="115" y="280" width="120" height="60" as="geometry" />
        </mxCell>
        <mxCell id="eWc8LPqZ7n1QxOSzpqEL-27" style="edgeStyle=orthogonalEdgeStyle;rounded=1;orthogonalLoop=1;jettySize=auto;html=1;" edge="1" parent="1" source="eWc8LPqZ7n1QxOSzpqEL-5" target="eWc8LPqZ7n1QxOSzpqEL-10">
          <mxGeometry relative="1" as="geometry" />
        </mxCell>
        <mxCell id="eWc8LPqZ7n1QxOSzpqEL-28" value="检查通过" style="edgeLabel;html=1;align=center;verticalAlign=middle;resizable=0;points=[];" vertex="1" connectable="0" parent="eWc8LPqZ7n1QxOSzpqEL-27">
          <mxGeometry x="-0.2" relative="1" as="geometry">
            <mxPoint as="offset" />
          </mxGeometry>
        </mxCell>
        <mxCell id="eWc8LPqZ7n1QxOSzpqEL-5" value="检查数据" style="rounded=1;whiteSpace=wrap;html=1;" vertex="1" parent="1">
          <mxGeometry x="115" y="380" width="120" height="60" as="geometry" />
        </mxCell>
        <mxCell id="eWc8LPqZ7n1QxOSzpqEL-36" value="" style="edgeStyle=orthogonalEdgeStyle;rounded=0;orthogonalLoop=1;jettySize=auto;html=1;" edge="1" parent="1" source="eWc8LPqZ7n1QxOSzpqEL-6" target="eWc8LPqZ7n1QxOSzpqEL-7">
          <mxGeometry relative="1" as="geometry" />
        </mxCell>
        <mxCell id="eWc8LPqZ7n1QxOSzpqEL-6" value="执行自动化任务" style="rounded=1;whiteSpace=wrap;html=1;" vertex="1" parent="1">
          <mxGeometry x="420" y="170" width="120" height="60" as="geometry" />
        </mxCell>
        <mxCell id="eWc8LPqZ7n1QxOSzpqEL-22" value="" style="edgeStyle=orthogonalEdgeStyle;orthogonalLoop=1;jettySize=auto;html=1;curved=1;exitX=0.5;exitY=1;exitDx=0;exitDy=0;" edge="1" parent="1" source="eWc8LPqZ7n1QxOSzpqEL-7" target="eWc8LPqZ7n1QxOSzpqEL-9">
          <mxGeometry relative="1" as="geometry" />
        </mxCell>
        <mxCell id="eWc8LPqZ7n1QxOSzpqEL-7" value="收集/上报数据" style="rounded=1;whiteSpace=wrap;html=1;" vertex="1" parent="1">
          <mxGeometry x="590" y="170" width="120" height="60" as="geometry" />
        </mxCell>
        <mxCell id="eWc8LPqZ7n1QxOSzpqEL-25" style="edgeStyle=orthogonalEdgeStyle;orthogonalLoop=1;jettySize=auto;html=1;curved=1;" edge="1" parent="1" source="eWc8LPqZ7n1QxOSzpqEL-9" target="eWc8LPqZ7n1QxOSzpqEL-4">
          <mxGeometry relative="1" as="geometry" />
        </mxCell>
        <mxCell id="eWc8LPqZ7n1QxOSzpqEL-9" value="tracker data" style="shape=cylinder3;whiteSpace=wrap;html=1;boundedLbl=1;backgroundOutline=1;size=15;" vertex="1" parent="1">
          <mxGeometry x="470" y="305" width="60" height="80" as="geometry" />
        </mxCell>
        <mxCell id="eWc8LPqZ7n1QxOSzpqEL-10" value="SDK release" style="rounded=1;whiteSpace=wrap;html=1;" vertex="1" parent="1">
          <mxGeometry x="115" y="500" width="120" height="60" as="geometry" />
        </mxCell>
        <mxCell id="eWc8LPqZ7n1QxOSzpqEL-13" value="gitlab CI" style="text;html=1;strokeColor=none;fillColor=none;align=center;verticalAlign=middle;whiteSpace=wrap;rounded=0;" vertex="1" parent="1">
          <mxGeometry x="145" y="585" width="60" height="30" as="geometry" />
        </mxCell>
        <mxCell id="eWc8LPqZ7n1QxOSzpqEL-18" value="云测平台" style="text;html=1;strokeColor=none;fillColor=none;align=center;verticalAlign=middle;whiteSpace=wrap;rounded=0;" vertex="1" parent="1">
          <mxGeometry x="530" y="500" width="60" height="30" as="geometry" />
        </mxCell>
        <mxCell id="eWc8LPqZ7n1QxOSzpqEL-38" value="云测机器" style="text;html=1;strokeColor=none;fillColor=none;align=center;verticalAlign=middle;whiteSpace=wrap;rounded=0;" vertex="1" parent="1">
          <mxGeometry x="535" y="120" width="60" height="30" as="geometry" />
        </mxCell>
        <mxCell id="eWc8LPqZ7n1QxOSzpqEL-39" value="云测服务" style="text;html=1;strokeColor=none;fillColor=none;align=center;verticalAlign=middle;whiteSpace=wrap;rounded=0;" vertex="1" parent="1">
          <mxGeometry x="470" y="400" width="60" height="30" as="geometry" />
        </mxCell>
      </root>
    </mxGraphModel>
  </diagram>
</mxfile>
